# xmcd
#
# Track frame offsets: 
#        150
#        12824
#        23516
#        38171
#        60178
#        81744
#        96590
#        113658
#        140010
#
# Disc length: 2244 seconds
#
# Revision: 2
# Processed by: cddbd v1.5.2PL0 Copyright (c) Steve Scherf et al.
# Submitted via: ExactAudioCopy v0.99pb5
#
DISCID=6d08c209
DTITLE=Mose Allison - Lessons In Living
DYEAR=1900
DGENRE=Jazz
TTITLE0=Lost Mind
TTITLE1=Wild Man On The Loose
TTITLE2=Your Mind is on Vacation
TTITLE3=You Are My Sunshine
TTITLE4=Seventh Son
TTITLE5=Everybody is Crying Mercy
TTITLE6=Middle Class Whiteboy
TTITLE7=I Don't Worry About A Thing
TTITLE8=Night Club
EXTD=
EXTT0=
EXTT1=
EXTT2=
EXTT3=
EXTT4=
EXTT5=
EXTT6=
EXTT7=
EXTT8=
PLAYORDER=
